# xmcd CD database file
#
# Track frame offsets:
#	150
#	27839
#	58033
#	75591
#	95359
#	130506
#	146824
#	204015
#	236100
#	245588
#	281603
#	311086
#
# Disc length: 4475 seconds
#
# Revision: 2
# Processed by: cddbd v1.4b41PL1 Copyright (c) Steve Scherf et al.
# Submitted via: Feurio! 1.50.2ß - http://www.feurio.com
#
DISCID=a111790c
DTITLE=Resetarits - Hader - Dorfer - Das Beste 1
DYEAR=1900
DGENRE=
TTITLE0=Resetarits - Branko
TTITLE1=Hader - Die Kullerparty
TTITLE2=Dorfer - Freundin
TTITLE3=Resetarits - Golfkrieg
TTITLE4=Hader - Der Landwirt
TTITLE5=Dorfer - Hader - Vor Dem Klo
TTITLE6=Resetarits - Branko Simmering
TTITLE7=Resetarits - Du Gut Mann
TTITLE8=Hader - Lied Von Den Leuten Die Nicht Ins Kabarett Gehen
TTITLE9=Hader - Scheidung
TTITLE10=Resetarits - Ein Telefonischer Anruf
TTITLE11=Hader - Landleben
EXTD=
EXTT0=
EXTT1=
EXTT2=
EXTT3=
EXTT4=
EXTT5=
EXTT6=
EXTT7=
EXTT8=
EXTT9=
EXTT10=
EXTT11=
PLAYORDER=
